# xmcd
#
# Track frame offsets: 
#        150
#        15075
#        29290
#        47857
#        59052
#        75302
#        94422
#        105037
#        120420
#        135637
#        152862
#        166132
#        180115
#        191240
#        207372
#
# Disc length: 2947 seconds
#
# Revision: 3
# Processed by: cddbd v1.5PL3 Copyright (c) Steve Scherf et al.
# Submitted via: ExactAudioCopy v0.90b4
#
DISCID=b40b810f
DTITLE=Keith Whitley - Sad Songs and Waltzes
DYEAR=2000
DGENRE=Country
TTITLE0=I Never Go Around Mirrors
TTITLE1=(I've Always Been) Honky Tonk Crazy
TTITLE2=To Be Loved By A Woman
TTITLE3=Where Did You Learn To Love Like That
TTITLE4=I Would Have Loved You All Night Long
TTITLE5=Somewhere Between
TTITLE6=Girl From The Canyon
TTITLE7=Does Fort Worth Ever Cross Your Mind
TTITLE8=I Don't Know You Well Enough To Say Goodbye
TTITLE9=Dance With Me Molly
TTITLE10=Where Are All The Girls I Used To Cheat With
TTITLE11=Sad Songs And Waltzes
TTITLE12=Another Town
TTITLE13=Long Black Limousine
TTITLE14=Family Tree
EXTD=YEAR: 2000 ID3G:   2
EXTT0=
EXTT1=
EXTT2=
EXTT3=
EXTT4=
EXTT5=
EXTT6=
EXTT7=
EXTT8=
EXTT9=
EXTT10=
EXTT11=
EXTT12=
EXTT13=
EXTT14=
PLAYORDER=
